<?xml version="1.0" encoding="utf-8"?>
<!-- Generator: Adobe Illustrator 22.1.0, SVG Export Plug-In . SVG Version: 6.00 Build 0)  -->
<svg version="1.1" id="图层_1" xmlns="http://www.w3.org/2000/svg" xmlns:xlink="http://www.w3.org/1999/xlink" x="0px" y="0px"
	 viewBox="0 0 1024 1024" style="enable-background:new 0 0 1024 1024;" xml:space="preserve">
  <symbol id="m"  viewBox="0 0 1024 1024">

  <g>
	<path d="M884.1,111.4H150.7c-18.4,0-33.3,14.9-33.3,33.3v733.4c0,18.4,14.9,33.3,33.3,33.3h733.4c18.4,0,33.3-14.9,33.3-33.3V144.7
		C917.4,126.4,902.5,111.4,884.1,111.4L884.1,111.4z M335.6,853.1c0-100.5,81.5-182.1,182.1-182.1c100.5,0,182.1,81.5,182.1,182.1
		H335.6z M859.1,853.1h-54.8c0-10.6-0.6-21.1-1.9-31.3l56.6-39.6l-24.3-74l-69.2,1.6c-10.2-17.6-22.2-34-35.9-49l22.7-65.5l-63-45.6
		l-55,41.8c-18.4-8.3-37.7-14.7-58-19l-19.9-66h-77.8l-20,66c-20.8,4.3-40.7,11.1-59.6,19.7l-55.3-41.6l-62.8,46.1l23.1,65.4
		c-13.6,15.1-25.5,31.6-35.6,49.2l-69.2-1.1l-23.6,74.1l56.7,39.1c-1,9.7-1.5,19.6-1.5,29.6h-55.3V358.7h683.3V853.1z M429.7,170.4
		c19.6,0,35.4,15.9,35.4,35.4c0,19.5-15.8,35.5-35.4,35.5c-19.6,0-35.4-15.9-35.4-35.4C394.3,186.4,410.1,170.4,429.7,170.4
		L429.7,170.4z M318,170.4c19.6,0,35.4,15.9,35.4,35.4c0,19.5-15.8,35.5-35.4,35.5c-19.6,0-35.4-15.9-35.4-35.4
		C282.6,186.4,298.4,170.4,318,170.4L318,170.4z M206.2,170.4c19.6,0,35.4,15.9,35.4,35.4c0,19.5-15.9,35.5-35.4,35.5
		c-19.6,0-35.4-15.9-35.4-35.4C170.8,186.4,186.6,170.4,206.2,170.4L206.2,170.4z M206.2,170.4"/>
</g>
    </symbol>

</svg>
