<?xml version="1.0" encoding="utf-8"?>
<!-- Generator: Adobe Illustrator 22.1.0, SVG Export Plug-In . SVG Version: 6.00 Build 0)  -->
<svg version="1.1" id="图层_1" xmlns="http://www.w3.org/2000/svg" xmlns:xlink="http://www.w3.org/1999/xlink" x="0px" y="0px"
	 viewBox="0 0 1024 1024" style="enable-background:new 0 0 1024 1024;" xml:space="preserve">
   <symbol id="m" viewBox="0 0 1024 1024">
    <g>
      <defs>
        <rect id="SVGID_1_" width="1024" height="1024"/>
      </defs>
      <clipPath id="SVGID_2_">
        <use xlink:href="#SVGID_1_"  style="overflow:visible;"/>
      </clipPath>
      <path class="st0" d="M781.5,482.1h40c17.9,0,34.1,10.4,41.6,26.7l48.7,106.4v270.7c0,25.2-20.5,45.7-45.7,45.7H157.5
        c-25.2,0-45.7-20.5-45.7-45.7V616.5L160.6,509c7.4-16.3,23.7-26.8,41.6-26.8h39.9c-0.5-2.5-0.8-5.1-0.8-7.6V131.7
        c0-21,17.1-38.1,38.1-38.1c21,0,38.1,17.1,38.1,38.1v342.9c0,2.6-0.3,5.2-0.8,7.6h390.1c-0.5-2.5-0.8-5.1-0.8-7.6V131.7
        c0-21,17.1-38.1,38.1-38.1c21,0,38.1,17.1,38.1,38.1v342.9C782.3,477.1,782,479.7,781.5,482.1 M230.8,558.3c-2.9,0-5.5,1.6-6.8,4.2
        l-22.9,45.7c-1.2,2.4-1.1,5.2,0.3,7.4c1.4,2.2,3.8,3.6,6.5,3.6H817c2.5,0,4.8-1.2,6.3-3.3c1.4-2.1,1.7-4.7,0.9-7L807,563.3
        c-1.1-3-4-4.9-7.1-4.9H230.8z M671.8,741.2c-18.9,0-34.3,15.4-34.3,34.3c0,18.9,15.3,34.3,34.3,34.3h83.8
        c18.9,0,34.3-15.4,34.3-34.3c0-18.9-15.4-34.3-34.3-34.3H671.8z M549.9,741.2c-18.9,0-34.3,15.4-34.3,34.3
        c0,18.9,15.4,34.3,34.3,34.3h15.2c18.9,0,34.3-15.4,34.3-34.3c0-18.9-15.4-34.3-34.3-34.3H549.9z M428,741.2
        c-18.9,0-34.3,15.4-34.3,34.3c0,18.9,15.3,34.3,34.3,34.3h15.2c18.9,0,34.3-15.4,34.3-34.3c0-18.9-15.4-34.3-34.3-34.3H428z"/>
    </g>
  </symbol>
</svg>
