<?xml version="1.0" encoding="utf-8"?>
<!-- Generator: Adobe Illustrator 22.1.0, SVG Export Plug-In . SVG Version: 6.00 Build 0)  -->
<svg version="1.1" id="图层_1" xmlns="http://www.w3.org/2000/svg" xmlns:xlink="http://www.w3.org/1999/xlink" x="0px" y="0px"
	 viewBox="0 0 1024 1024" style="enable-background:new 0 0 1024 1024;" xml:space="preserve">
  <symbol id="m" viewBox="0 0 1024 1024">
     <g>
	<g>
		<path d="M645.6,921.7H376.4c-6.2,0-12.3-6.2-12.3-12.3c0-6.2,6.2-12.3,12.3-12.3h269.2c6.2,0,12.3,6.2,12.3,12.3
			C657.9,915.5,653.8,921.7,645.6,921.7L645.6,921.7z M635.3,874.4H388.7c-14.4,0-24.7-10.3-24.7-24.7c0-14.4,10.3-24.7,24.7-24.7
			h246.6c14.4,0,24.7,10.3,24.7,24.7C660,862,649.7,874.4,635.3,874.4L635.3,874.4z M810,479.8H663.9c0.1,1.4,0.2,2.7,0.2,4.1v275.4
			c-2,24.7-20.5,45.2-45.2,45.2H413.3c-24.7,0-45.2-20.6-45.2-45.2V483.9c0-1.4,0.1-2.8,0.2-4.1H230.4
			c-30.8,2.1-47.3-34.9-24.7-57.5l289.8-289.8c14.4-14.4,34.9-14.4,49.3,0l289.8,289.8C857.3,444.8,840.8,479.8,810,479.8L810,479.8
			z M810,479.8"/>
	</g>
</g>
  </symbol>


</svg>
