<?xml version="1.0" encoding="utf-8"?>
<!-- Generator: Adobe Illustrator 22.1.0, SVG Export Plug-In . SVG Version: 6.00 Build 0)  -->
<svg version="1.1" id="图层_1" xmlns="http://www.w3.org/2000/svg" xmlns:xlink="http://www.w3.org/1999/xlink" x="0px" y="0px"
	 viewBox="0 0 1024 1024" style="enable-background:new 0 0 1024 1024;" xml:space="preserve">
  <symbol id="m" viewBox="0 0 1024 1024">
    <g>
      <defs>
        <rect id="SVGID_1_" width="1024" height="1024"/>
      </defs>
      <clipPath id="SVGID_2_">
        <use xlink:href="#SVGID_1_"  style="overflow:visible;"/>
      </clipPath>
      <path class="st0" d="M882.8,198.4H678.5c-43.8,0-86.7,12.6-123.6,36.3l-43.6,27.9l-43.6-27.9c-36.8-23.7-79.7-36.3-123.6-36.3H140
        c-15.8,0-28.6,12.8-28.6,28.6v507.1c0,15.8,12.8,28.6,28.6,28.6h204.3c43.8,0,86.7,12.6,123.6,36.3l39.6,25.5
        c1.2,0.7,2.5,1.2,3.8,1.2c1.3,0,2.7-0.4,3.8-1.2l39.6-25.5c37-23.8,79.9-36.3,123.7-36.3h204.3c15.8,0,28.6-12.8,28.6-28.6V227
        C911.4,211.1,898.6,198.4,882.8,198.4 M415,548.8c0,3.7-2.9,6.7-6.3,6.7H242.7c-3.5,0-6.3-3-6.3-6.7v-40.2c0-3.7,2.9-6.7,6.3-6.7
        h165.8c3.5,0,6.3,3,6.3,6.7L415,548.8L415,548.8z M415,423.8c0,3.7-2.9,6.7-6.3,6.7H242.7c-3.5,0-6.3-3-6.3-6.7v-40.2
        c0-3.7,2.9-6.7,6.3-6.7h165.8c3.5,0,6.3,3,6.3,6.7L415,423.8L415,423.8z M786.4,548.8c0,3.7-2.9,6.7-6.3,6.7H614.2
        c-3.5,0-6.3-3-6.3-6.7v-40.2c0-3.7,2.9-6.7,6.3-6.7H780c3.5,0,6.3,3,6.3,6.7L786.4,548.8L786.4,548.8z M786.4,423.8
        c0,3.7-2.9,6.7-6.3,6.7H614.2c-3.5,0-6.3-3-6.3-6.7v-40.2c0-3.7,2.9-6.7,6.3-6.7H780c3.5,0,6.3,3,6.3,6.7L786.4,423.8L786.4,423.8z
        "/>
    </g>
  </symbol>
</svg>
