<?xml version="1.0" encoding="utf-8"?>
<!-- Generator: Adobe Illustrator 22.1.0, SVG Export Plug-In . SVG Version: 6.00 Build 0)  -->
<svg version="1.1" id="图层_1" xmlns="http://www.w3.org/2000/svg" xmlns:xlink="http://www.w3.org/1999/xlink" x="0px" y="0px"
	 viewBox="0 0 1024 1024" style="enable-background:new 0 0 1024 1024;" xml:space="preserve">
<symbol id="m"  viewBox="0 0 1024 1024">
  <g>
    <g>
      <defs>
        <rect id="SVGID_1_" x="139.6" y="102.4" width="742.6" height="800"/>
      </defs>
      <clipPath id="SVGID_2_">
        <use xlink:href="#SVGID_1_"  style="overflow:visible;"/>
      </clipPath>
      <path class="st0" d="M443.6,740.6H224c-17.7,0-32.1-14.4-32.1-32v-521c0-17.7,14.4-32.1,32.1-32.1h240.3V219
        c0,37.7,30.9,68.5,68.5,68.5h72.4c0.2,1,0.5,1.9,0.5,3v212.8c5.9,5,11.9,9.8,17.8,15.8c0.8,0.9,1.6,1.7,2.4,2.6
        c3.7-1.9,7.4-3.6,11.2-4.9c7.1-2.5,14.1-3.8,21.1-4.5V290.6c0-1.6-0.3-3-0.4-4.5c-1-18.2-8-35.5-20.3-49l-97.8-107.9
        c-15.1-16.6-36.7-26.1-59-26.1H224.1c-46.7,0-84.6,38-84.6,84.6v521c0,46.6,38,84.6,84.6,84.6h219.7
        C438.8,776.3,438.5,758.2,443.6,740.6L443.6,740.6z M443.6,740.6"/>
      <path class="st0" d="M259,408.3h189.6c16.1,0,29.3-13.2,29.3-29.3c0-16.1-13.2-29.3-29.3-29.3H259c-16.1,0-29.3,13.2-29.3,29.3
        C229.7,395.1,242.9,408.3,259,408.3L259,408.3z M457.3,504.5c9.4-14.7,23.6-25.9,40.2-32.1H259c-16.1,0-29.3,13.2-29.3,29.3
        c0,16.1,13.2,29.3,29.3,29.3h185.4c0.3-1,0.3-2,0.6-3C447.9,519.5,452,511.6,457.3,504.5L457.3,504.5z M488.8,632.9
        c-10.6-7.2-22.9-15.6-33-30.6c-1.6-2.3-2.5-4.9-3.8-7.3H259c-16.1,0-29.3,13.2-29.3,29.3c0,16.1,13.2,29.3,29.3,29.3h251
        C502.9,642.6,496.7,638.2,488.8,632.9L488.8,632.9z M488.8,632.9"/>
      <path class="st0" d="M835.4,586.7c-5.6-15.4-21-25.8-38.3-25.8c-4.9,0-9.7,0.9-14.1,2.5c-3,1.1-6.2,2.7-9.1,4.8
        c-8.1-13.7-23-22.3-39.3-22.3c-5.1,0-10.4,0.9-15.8,2.8c-8.3,3-15.4,8.3-20.8,15.3c-8.4-8-19.6-12.5-31.3-12.5
        c-5.1,0-10.5,0.9-15.8,2.8c-11.6,4.2-21.8,12.5-27.8,22.1c-0.9,1.1-1.6,2.2-2.3,3.3c-9.7-14.3-18-24.9-25.5-32.4
        c-18.3-18.4-45.4-40.2-70.3-40.2c-4.4,0-8.7,0.8-12.9,2.3c-9.3,3.4-17.1,9.8-21.8,17.9c-3.2,4-5.6,8.4-7.2,13.3
        c-4.4,13.2-2.3,27.5,5.8,39.5c5.8,8.7,13.6,13.9,22,19.6c11.2,7.4,23.9,15.8,37.3,39.3c10.4,18.2,24.2,49.5,39.8,90.9l-30.6-15.1
        c-7.1-3.3-14.7-5-22.4-5c-18.2,0-35.3,9.7-44.7,25c-2.3,3-4.3,6.3-6,9.8c-12.2,26.5-1,58.1,26.5,71c8,4.2,46.2,24.3,97.2,48
        l9.4,4.4c36.7,17.3,71.5,33.6,112.6,33.6c19.6,0,39.1-3.7,59.6-11.2c32-11.6,54.4-27.8,68.4-49.2c16.9-22.9,21.1-48.9,23.7-71.4
        C886.5,726.4,835.9,588.1,835.4,586.7L835.4,586.7z M516.9,751.2c1.9-4.4,5-8.1,7.8-10.2c2.5-0.7,5-1.1,7.5-1.1
        c4.1,0,8,0.9,11.3,2.7l64.7,31.9c1.8,0.9,3.7,1.3,5.8,1.3c3.2,0,6.2-1.2,8.4-3.1c1.6-1.2,2.7-2.9,1.7-2.9c0,0-0.2,0.1-0.2,0.1
        l3.5-2.2c3.9-3.4,5.4-8.8,2.7-16.5c-20.1-56.9-38.8-101.5-52.5-125.6c-15.8-27.7-32-38.6-43.9-46.6c-6.2-4.2-11.1-7.5-14.1-12
        c-3.4-5.2-4.4-11.2-2.7-16.3c1.6-4.8,5.2-8.5,10.1-10.3l5-0.8c11.9,4.4,26.9,15.3,42.4,30.7c20.3,20.3,45.8,66.8,50.8,76.1
        c2.2,4.4,6.5,7.1,11.5,7.1l4.2-1.1l0.8-0.4l3.9-0.8l0.8-0.4c6.1-2.8,9-9.7,6.7-16l-7.9-21.8c-5.5-15.2,6.5-25.8,15.8-29.2
        c1.9-0.7,3.7-1.1,7.3-1.1c0.6,0,1.2,0.1,1.9,0.1c5.8,1.9,10.6,6.5,12.7,12.2l11.2,30.8c1.8,5.1,6.7,8.5,12.2,8.5
        c1.6,0,3-0.3,6.2-1.4c6.4-2.4,9.8-9.7,7.5-16.3l-4.9-13.6c-1.7-4.9-1.6-10.1,0.6-14.7c2.2-4.6,6-8.1,10.8-9.8
        c2.1-0.8,4.3-1.2,6.4-1.2c8,0,15.2,5.1,17.9,12.6l12.8,35.2c0.6,1.9,1.7,3.6,3.3,5.1c2.4,2.5,5.8,3.9,9.3,3.9l4.4-0.8
        c3.2-1.2,5.8-3.5,7.2-6.5c1.5-3.1,1.7-6.8,0.5-10.1l-7-19.3c1.5-1.2,3.6-2.7,6.9-4.8c1.5-0.5,3.2-0.9,5-0.9c6,0,11.6,3.6,13.3,8.4
        c15.4,42.3,46.4,138.7,43.2,166.2c-4.4,39.3-12.4,71-69.6,92c-17.2,6.2-33.1,9.3-49,9.3c-33.7,0-63.4-14-97.9-30.3l-9-4.2
        c-55-25.7-94-46.9-94.6-47.2c-6.3-3-11.1-8.1-13.4-14.7C513.6,764.8,513.9,757.6,516.9,751.2L516.9,751.2z M516.9,751.2"/>
    </g>
  </g>
</symbol>

</svg>
