<?xml version="1.0" encoding="utf-8"?>
<!-- Generator: Adobe Illustrator 22.1.0, SVG Export Plug-In . SVG Version: 6.00 Build 0)  -->
<svg version="1.1" id="图层_1" xmlns="http://www.w3.org/2000/svg" xmlns:xlink="http://www.w3.org/1999/xlink" x="0px" y="0px"
	 viewBox="0 0 1024 1024" style="enable-background:new 0 0 1024 1024;" xml:space="preserve">
  <symbol id="m" viewBox="0 0 1024 1024">
    <g>
      <defs>
        <rect id="SVGID_1_" width="1024" height="1024"/>
      </defs>
      <clipPath id="SVGID_2_">
        <use xlink:href="#SVGID_1_"  style="overflow:visible;"/>
      </clipPath>
      <path class="st0" d="M780.7,588.4h94.5c20.1,0,36.4,16.3,36.4,36.4v189.1c0,20.1-16.3,36.4-36.4,36.4H148
        c-20.1,0-36.4-16.3-36.4-36.4V624.8c0-20.1,16.3-36.4,36.4-36.4h101.8V199.4c0-14.1,11.4-25.5,25.5-25.5
        c14.1,0,25.5,11.4,25.5,25.5v389.1h429.1V199.4c0-14.1,11.4-25.5,25.5-25.5c14.1,0,25.5,11.4,25.5,25.5V588.4z M228,683
        c-20.1,0-36.4,16.3-36.4,36.4c0,20.1,16.3,36.4,36.4,36.4h152.7c20.1,0,36.4-16.3,36.4-36.4c0-20.1-16.3-36.4-36.4-36.4H228z
        M751.6,683c-20.1,0-36.4,16.3-36.4,36.4c0,20.1,16.3,36.4,36.4,36.4c20.1,0,36.4-16.3,36.4-36.4C788,699.3,771.7,683,751.6,683"/>
    </g>
  </symbol>
</svg>
