<?xml version="1.0" encoding="utf-8"?>
<!-- Generator: Adobe Illustrator 22.1.0, SVG Export Plug-In . SVG Version: 6.00 Build 0)  -->
<svg version="1.1" id="图层_1" xmlns="http://www.w3.org/2000/svg" xmlns:xlink="http://www.w3.org/1999/xlink" x="0px" y="0px"
	 viewBox="0 0 1024 1024" style="enable-background:new 0 0 1024 1024;" xml:space="preserve">
  <symbol id="m" viewBox="0 0 1024 1024">
    <g>
      <g>
        <path class="st0" d="M852.3,697.7c8.7-45.1-0.7-90.8-26.5-128.9c-25.8-38-64.8-63.7-109.9-72.4c-10.8-2-21.7-3.1-32.6-3.1
          c-82.2,0-153.1,58.7-168.6,139.5c-8.7,45.1,0.8,90.8,26.5,128.9c25.8,38,64.8,63.7,109.9,72.4c10.8,2.1,21.7,3.1,32.7,3.1
          c25.9,0,51.7-6,75-17.3c0.6,1.3,1.3,2.7,2.2,3.9l49,72.4c4.6,6.9,12.3,10.9,20.6,10.9c4.9,0,9.8-1.5,13.9-4.3
          c11.3-7.7,14.3-23.1,6.6-34.5l-49-72.3c-0.9-1.3-1.8-2.4-2.9-3.5C826.9,767.3,845.2,734.6,852.3,697.7L852.3,697.7z M786.5,653
          l-19-14.8c-2.6-2.6-6.3-4.3-10.6-4.7c-0.8-0.1-1.6-0.2-2.4-0.1h-0.1c-3.8,0-7.4,1-10.3,2.9c-3.1,2-5.2,4.8-5.6,8.1l-16.9,39.7
          l-27.3-84.7c-1.9-5.5-8.3-9.3-15.6-9.3h-0.5c-6.6,0-12.3,3-14.8,7.6l-0.1,0.2l-35.9,84.2l-32.6-25.2c-3-2.3-7-3.6-11.3-3.6H562
          c0.4-3.6,0.9-7.3,1.6-10.9c11-57.4,61.4-99.2,119.9-99.2c7.7,0,15.6,0.8,23.2,2.2c32,6.2,59.8,24.4,78.1,51.4
          c11.6,17,18.5,36.3,20.5,56.3H786.5z M576.7,678.2l46.1,35.6c3,2.3,7.1,3.6,11.4,3.6h0.5c6.5,0,12.3-3,14.8-7.6l0.1-0.2l26.9-63.1
          l27.4,85.2c1.8,5.5,8.2,9.3,15.5,9.3h0.3c7.7,0,14.3-4.2,15.7-10.1l26.3-61.7l6.4,5c1.3,1,2.9,1.9,4.5,2.4
          c2.3,0.9,4.8,1.4,7.4,1.4h25c-0.4,3.4-0.9,6.8-1.5,10.2c-11,57.4-61.4,99.2-119.8,99.2c-7.7,0-15.5-0.8-23.2-2.2
          c-32-6.2-59.8-24.4-78.1-51.4C571,717,564.1,698,562,678.3L576.7,678.2z"/>
      </g>
      <g>
        <path class="st0" d="M310.1,413.1h190c16.2,0,29.4-13.2,29.4-29.4c0-16.2-13.2-29.4-29.4-29.4h-190c-16.2,0-29.4,13.2-29.4,29.4
          C280.7,399.9,293.9,413.1,310.1,413.1z"/>
        <path class="st0" d="M310.1,535.7h204.8c17-23.2,38.5-42.6,63.2-57.1c-3-1.1-6.3-1.6-9.6-1.6H310.1c-16.2,0-29.4,13.2-29.4,29.4
          C280.7,522.5,293.9,535.7,310.1,535.7z"/>
        <path class="st0" d="M478.4,619.4c1.2-6.4,2.8-12.7,4.6-18.9H310.1c-16.2,0-29.4,13.2-29.4,29.4c0,16.2,13.2,29.4,29.4,29.4h164.6
          C474.6,646,475.9,632.7,478.4,619.4z"/>
      </g>
      <g>
        <path class="st0" d="M510.6,775.9c-6.5-9.6-12.1-19.5-16.8-29.8H275c-17.7,0-32.2-14.5-32.2-32.1V191.9
          c0-17.7,14.5-32.2,32.2-32.2h240.8v63.7c0,37.7,30.9,68.7,68.7,68.7H657c0.2,1,0.5,2,0.5,3v156.5c8.5-1.1,17.1-1.6,25.8-1.6
          c8.9,0,17.9,0.6,26.8,1.8V295.1c0-1.6-0.3-3-0.4-4.5c-1-18.2-8-35.6-20.3-49.2l-98-108.2c-15.1-16.6-36.7-26.2-59.2-26.2H275.1
          c-46.8,0-84.8,38.1-84.8,84.8V714c0,46.7,38.1,84.8,84.8,84.8h253.5C522.1,791.6,516.1,784,510.6,775.9z"/>
      </g>
    </g>
  </symbol>
</svg>
