<?xml version="1.0" encoding="utf-8"?>
<!-- Generator: Adobe Illustrator 22.1.0, SVG Export Plug-In . SVG Version: 6.00 Build 0)  -->
<svg version="1.1" id="图层_1" xmlns="http://www.w3.org/2000/svg" xmlns:xlink="http://www.w3.org/1999/xlink" x="0px" y="0px"
	  viewBox="0 0 1024 1024" style="enable-background:new 0 0 1024 1024;" xml:space="preserve">
  <symbol id="m" viewBox="0 0 1024 1024">
    <g>
      <path class="st0" d="M882.8,198.3H140c-15.8,0-28.6,12.8-28.6,28.6v571.4c0,15.8,12.8,28.6,28.6,28.6h742.9
        c15.8,0,28.6-12.8,28.6-28.6V226.9C911.4,211.1,898.6,198.3,882.8,198.3L882.8,198.3z M800.4,371.9L535.2,637.2
        c-2.8,2.8-7.3,2.8-10.1,0L422.9,535l-154,154.1c-2.8,2.8-7.3,2.8-10.1,0L226,656.3c-2.8-2.8-2.8-7.3,0-10.1l191.9-192
        c2.8-2.8,7.3-2.8,10.1,0l102.2,102.1L757.4,329c2.8-2.8,7.3-2.8,10.1,0l32.9,32.9C803.2,364.6,803.2,369.1,800.4,371.9L800.4,371.9
        z M800.4,371.9"/>
    </g>
  </symbol>
</svg>
